<?xml version="1.0" encoding="utf-8"?>
<!-- Generator: Adobe Illustrator 25.2.1, SVG Export Plug-In . SVG Version: 6.00 Build 0)  -->
<svg version="1.1" id="Layer_1" xmlns="http://www.w3.org/2000/svg" xmlns:xlink="http://www.w3.org/1999/xlink" x="0px" y="0px"
	 viewBox="0 0 3061.42 3061.42" style="enable-background:new 0 0 3061.42 3061.42;" xml:space="preserve">
<style type="text/css">
	.st0{fill:#FFFFFF;}
</style>
<g>
	<g>
		<path class="st0" d="M2599.87,2102.15L2599.87,2102.15c0,10.51-21.12,19.03-47.17,19.03H1407.47c-26.05,0-47.17-8.52-47.17-19.03
			l0,0c0-10.51,21.12-19.03,47.17-19.03H2552.7C2578.75,2083.12,2599.87,2091.64,2599.87,2102.15z"/>
	</g>
	<g>
		<path class="st0" d="M573.88,1062.1c-30.78,33.59-53.69,58.6-79.06,86.28c-19.28-22.73-34.08-40.17-50.04-58.98
			c65.2-58.1,113.18-123.78,128.34-211.24c23.02-1.21,45.65-2.4,70.7-3.72c84.82,215.74,250.78,303.62,483.6,292.15
			c-7.27,16.54-12.28,29.61-18.58,42.02c-146.1,288.06-292.33,576.05-438.58,864.04c-13.02,25.64-23.36,56.61-61.97,46.59
			c-36.09-9.37-31.66-40.36-31.75-67.59c-1.01-309.65-1.82-619.3-2.68-928.95C573.84,1106.34,573.88,1089.97,573.88,1062.1z
			 M651.16,1042.7c0,303.13,0,597.01,0,890.89c2.36,0.44,4.73,0.88,7.09,1.31c116.94-230.39,233.88-460.78,353.07-695.62
			C863.23,1221.54,745.25,1158.5,651.16,1042.7z"/>
		<g>
			<path class="st0" d="M1841.58,1641.71c47.02,0,94.06-0.63,141.05,0.49c10.32,0.25,25.37,4.03,29.33,11.15
				c3.79,6.81-1.42,21.82-7.11,30.23c-57.26,84.61-64.29,173.24-22.94,267.54c-5.08,3.05-9.97,6.29-15.14,9
				c-4.69,2.46-9.69,4.34-14.38,6.4c-44.45-65.24-41.31-159.65,9.46-287.24c-56.7,0-112.86,0-171.29,0c0,92.83,0,185.32,0,279
				c-12.9,0-23.54,0-36.7,0c0-168.34,0-336.43,0-507.82c-16.11,15.13-29.28,27.5-43.34,40.71c-7.98-9.83-14.83-18.27-22.88-28.19
				c32.02-27.75,59.96-58.23,66.17-102.51c11.41-1.05,22.14-2.03,34.14-3.13c24.81,49.15,69.98,77.33,117.02,102.64
				c26.96,14.5,55.88,25.33,83.27,39.1c8.88,4.46,22.3,13.41,21.92,19.58c-0.55,8.89-10.17,19.66-18.78,25.19
				c-44.19,28.42-89.31,55.39-134.06,82.93c-5.72,3.52-11.22,7.38-16.83,11.08C1840.86,1639.14,1841.22,1640.43,1841.58,1641.71z
				 M1949.82,1527.4c-53.81-32.45-106.92-64.49-158-95.3c0,60.99,0,125.3,0,192.24C1846.38,1590.86,1898.57,1558.84,1949.82,1527.4z
				"/>
			<path class="st0" d="M2609.49,1939.52c-7.71,10.01-13.89,18.05-19.95,25.92c-82.73-42.22-121.84-162.2-96.19-292.6
				c-27.09-13.44-56.36-13.91-88.21-0.73c31.69,117.14,0.87,215.33-93.85,296.18c-8.03-10.38-14.85-19.21-21.67-28.03
				c126.93-101.84,124.03-291.83-26.73-389.05c99.29-28.84,160.91-89,169.11-195.64c11.29,0,22.45,0,34.21,0
				c8.52,106.01,69.31,167.01,171.82,196.19c-70.1,46.13-114.07,105.78-119.7,187.87
				C2512.72,1821.43,2546.32,1886.65,2609.49,1939.52z M2392.12,1636.61c38.27-14.11,77.64-13.09,114.71,0.02
				c18.98-25.84,36.5-49.7,54.72-74.51c-50.06-26.4-87.35-64.94-112.57-118.46c-24.81,54.82-63.48,92.72-112.16,118.6
				C2355.59,1587.5,2373.03,1610.95,2392.12,1636.61z"/>
			<path class="st0" d="M1408.26,1833.4c51.74,21.24,91.13,53.86,121.58,100.25c36.86-54.73,84.93-91.23,148.67-108.34
				c3.12,11.72,5.9,22.12,8.3,31.15c-23.75,12.54-49.09,21.32-68.44,37.32c-23.22,19.2-42.65,43.54-61.26,67.55
				c-16.17,20.86-39.02,24.58-51.38,2.93c-31.63-55.41-78.56-89.55-139.26-106.31c-1.84-0.51-3.47-1.78-6.17-3.21
				c54.87-123.71,56.82-248.35,4.78-375.14c6.92-2.66,12.91-5.19,19.05-7.28c58.57-20.01,101.15-57.65,127.86-113.71
				c3.01-6.32,11.9-13.63,18.04-13.61c6.2,0.02,15.16,7.29,18.11,13.62c28.02,60.1,74.97,97.6,139.51,117.8
				c-3.05,11.41-5.93,22.15-9.15,34.21c-63.75-17.29-111.66-53.14-148.39-108.35c-29.35,44.55-67.52,77.23-117.7,98.55
				C1448.61,1611.64,1448.3,1722.01,1408.26,1833.4z"/>
			<g>
				<path class="st0" d="M2154.33,1967.64c-11.38,0-21.36,0-32.64,0c0-143.2,0-285.52,0-428.9c10.83,0,20.79,0,32.64,0
					C2154.33,1681.14,2154.33,1823.4,2154.33,1967.64z"/>
				<path class="st0" d="M2103.1,1463.55c-9.82-12.16-16.54-20.49-23.92-29.63c10.17-8.81,19.32-16.74,29.34-25.42
					c-9.67-8.34-18.79-16.2-29.49-25.43c7.53-9.12,14.67-17.77,21.93-26.56c13.36,9.3,25.25,23.92,37.59,24.32
					c11.22,0.36,22.95-14.73,36.66-24.6c6.8,8.35,13.85,16.99,21.91,26.87c-10.1,8.7-19.23,16.57-29.27,25.22
					c9.65,8.51,18.68,16.46,29.19,25.73c-7.07,8.76-13.79,17.06-22.61,27.99C2151.39,1433.85,2126.98,1425.7,2103.1,1463.55z"/>
			</g>
		</g>
		<g>
			<path class="st0" d="M1242.42,1332.06c-16.52,7.47-42.26-1.27-42.26-1.27l-1.27-8.1c16.19-55.92,9.97-118.68,2.48-165.29
				c-6.22-38.56,45.4-42.26,77.08-22.37C1302.09,1195.32,1283.41,1289.81,1242.42,1332.06z"/>
		</g>
	</g>
</g>
</svg>
